<svg class="logo-icon" version="1.1" xmlns="http://www.w3.org/2000/svg"
    style="width:1.033203125em;height:1em;vertical-align:middle" viewBox="0 0 1058 1024" fill="currentColor"
    overflow="hidden">
    <path d="M0 0h1024v1024H0V0z" fill="#202425" opacity=".01" />
    <path
        d="M206.814 834.253a443.733 443.733 0 00456.943 94.72 443.733 443.733 0 00289.177-366.25c-105.13 66.115-226.918 125.644-359.219 173.806-132.3 48.128-263.85 80.828-386.901 97.724z"
        fill="#0099FF" />
    <path
        d="M938.018 387.823c-2.73-9.216-5.7-18.432-9.045-27.58C845.14 129.946 590.507 11.196 360.243 95.027 129.946 178.86 11.196 433.493 95.027 663.757a457.404 457.404 0 0010.786 26.965c-7.134.546-14.2 1.024-21.23 1.434a51.2 51.2 0 106.11 102.23c147.524-8.807 315.05-43.93 485.512-105.985 170.462-62.02 321.4-142.814 440.047-230.912a51.2 51.2 0 10-61.03-82.193c-5.667 4.164-11.401 8.363-17.204 12.527z"
        fill="#056DE8" />
    <path
        d="M624.4 307.2a68.267 68.267 0 100-136.533 68.267 68.267 0 000 136.533zM317.2 614.4a136.533 136.533 0 100-273.067 136.533 136.533 0 000 273.067z"
        fill="black" />
</svg>